<?xml version="1.0" standalone="no"?>
<!DOCTYPE svg PUBLIC "-//W3C//DTD SVG 20010904//EN"
 "http://www.w3.org/TR/2001/REC-SVG-20010904/DTD/svg10.dtd">
<svg version="1.0" xmlns="http://www.w3.org/2000/svg"
 width="329.000000pt" height="330.000000pt" viewBox="0 0 329.000000 330.000000"
 preserveAspectRatio="xMidYMid meet">

<g transform="translate(0.000000,330.000000) scale(0.100000,-0.100000)"
fill="#007A3F" stroke="none">
<path d="M1480 3290 c-487 -51 -934 -317 -1202 -715 -116 -173 -210 -396 -255
-605 -26 -123 -26 -517 0 -640 45 -209 138 -431 255 -605 323 -481 917 -767
1488 -716 159 14 250 33 395 81 492 163 876 547 1039 1039 117 351 117 691 0
1042 -192 578 -693 1006 -1294 1104 -115 19 -319 26 -426 15z m147 -105 c18
-13 22 -13 33 0 16 20 84 19 104 -1 28 -27 29 -61 7 -108 -25 -51 -102 -126
-129 -126 -10 0 -40 21 -66 48 -75 73 -96 142 -56 182 24 24 76 26 107 5z
m-503 -203 c25 -75 46 -140 46 -143 0 -4 -33 -23 -74 -42 -254 -120 -487 -354
-601 -601 -20 -42 -41 -76 -48 -76 -18 0 -261 81 -271 91 -15 13 116 264 189
362 153 206 346 370 568 482 70 36 132 65 136 65 5 0 30 -62 55 -138z m1236
66 c300 -156 534 -392 685 -691 36 -71 65 -135 65 -141 0 -6 -64 -31 -143 -57
l-142 -45 -45 91 c-69 138 -135 230 -245 340 -106 107 -226 193 -351 252 -41
20 -73 41 -71 47 2 6 24 71 48 143 39 120 45 132 64 127 11 -3 72 -33 135 -66z
m-460 -237 c357 -80 663 -327 819 -662 145 -310 145 -688 0 -998 -159 -341
-470 -588 -839 -667 -124 -26 -372 -25 -496 4 -366 83 -665 324 -824 665 -144
307 -144 687 0 994 176 376 522 630 930 683 96 13 312 3 410 -19z m-1615
-1041 c12 -13 16 -31 13 -60 -3 -36 -1 -40 19 -40 12 0 31 12 42 26 l21 27 0
-73 0 -73 -21 27 c-11 14 -30 26 -42 26 -20 0 -22 -4 -19 -40 5 -53 -17 -80
-66 -80 -31 0 -44 9 -99 68 -34 37 -63 69 -63 72 0 3 28 35 63 73 55 58 67 67
98 67 23 0 42 -7 54 -20z m2835 -10 c15 -16 34 -30 41 -30 24 0 59 -43 59 -72
0 -40 -14 -63 -48 -77 -16 -7 -39 -25 -51 -42 -17 -23 -29 -29 -58 -29 -46 0
-83 32 -83 71 0 26 -2 28 -26 19 -41 -16 -44 -13 -44 51 0 65 0 65 53 44 13
-6 17 -2 17 18 0 13 9 36 21 51 30 38 82 36 119 -4z m-2547 -793 c132 -203
303 -355 515 -459 46 -22 81 -45 79 -52 -2 -6 -24 -71 -48 -143 -39 -120 -45
-132 -64 -127 -11 3 -72 33 -136 66 -292 150 -536 397 -684 692 -36 71 -65
134 -65 141 0 6 64 32 143 57 l142 46 32 -69 c18 -38 56 -107 86 -152z m2399
171 c76 -24 138 -48 138 -54 0 -25 -130 -267 -186 -345 -143 -199 -350 -378
-563 -487 -173 -89 -151 -96 -205 65 -25 76 -46 141 -46 145 0 3 37 24 83 47
258 126 470 340 593 598 19 40 38 73 42 74 4 0 69 -19 144 -43z m-1299 -790
c14 -24 39 -56 56 -72 17 -17 31 -35 31 -41 0 -6 -14 -24 -31 -41 -17 -16 -42
-48 -56 -71 -14 -24 -28 -43 -32 -43 -4 0 -22 21 -38 48 -17 26 -43 58 -57 71
-33 31 -33 41 5 77 17 16 42 48 56 72 14 23 29 42 33 42 4 0 19 -19 33 -42z"/>
<path d="M1478 2752 c-26 -2 -38 -8 -38 -19 0 -12 7 -14 38 -8 41 8 46 10 41
22 -2 4 -21 7 -41 5z"/>
<path d="M1550 2744 c0 -13 7 -15 31 -10 17 3 47 6 65 6 19 0 34 5 34 10 0 6
-28 10 -65 10 -53 0 -65 -3 -65 -16z"/>
<path d="M1710 2745 c0 -11 11 -15 39 -15 45 0 62 15 28 24 -39 10 -67 7 -67
-9z"/>
<path d="M1830 2736 c0 -7 18 -17 40 -23 31 -8 40 -7 40 2 0 7 -18 17 -40 23
-30 7 -40 7 -40 -2z"/>
<path d="M1358 2728 c-23 -6 -38 -16 -38 -25 0 -10 6 -13 16 -9 9 3 27 9 40
12 13 3 24 12 24 20 0 8 -1 14 -2 13 -2 -1 -20 -6 -40 -11z"/>
<path d="M1944 2709 c-8 -13 -7 -13 35 -28 23 -7 38 -8 45 -1 6 6 4 11 -5 14
-8 3 -26 10 -41 15 -18 7 -29 7 -34 0z"/>
<path d="M1238 2688 c-16 -5 -28 -16 -28 -24 0 -17 0 -17 44 1 59 25 45 46
-16 23z"/>
<path d="M2060 2666 c0 -7 15 -20 34 -29 28 -13 35 -13 39 -3 4 9 -9 19 -34
29 -29 12 -39 12 -39 3z"/>
<path d="M1455 2655 c-196 -36 -366 -123 -516 -263 -244 -229 -362 -582 -305
-910 59 -336 256 -600 560 -747 165 -80 255 -100 446 -100 191 0 281 20 446
100 274 133 472 376 546 671 32 126 32 360 1 484 -85 339 -330 610 -650 722
-48 17 -122 37 -163 44 -93 17 -272 16 -365 -1z m-323 -900 c-4 -327 -5 -322
70 -340 27 -7 44 -17 46 -28 3 -16 -14 -17 -197 -17 -189 0 -201 1 -201 19 0
14 10 20 46 25 26 3 53 11 60 17 11 9 14 61 14 245 l0 234 -60 0 c-57 0 -60 1
-60 24 0 22 6 25 53 31 56 7 131 45 141 70 4 12 17 15 48 13 l43 -3 -3 -290z
m508 269 c69 -32 95 -56 128 -119 26 -48 27 -57 27 -205 0 -132 -3 -160 -19
-190 -40 -75 -135 -148 -176 -135 -37 12 -42 30 -19 69 47 80 49 422 2 512
-11 22 -34 48 -51 59 -17 11 -31 23 -32 28 -1 17 88 5 140 -19z m602 10 c58
-19 122 -74 151 -128 20 -37 22 -55 22 -201 0 -181 -8 -209 -77 -276 -55 -53
-88 -65 -127 -45 -37 19 -37 20 -12 55 31 43 44 148 39 310 -6 170 -17 208
-81 263 l-42 38 41 0 c22 0 61 -7 86 -16z m-752 -34 c0 -5 -10 -26 -22 -47
-22 -36 -23 -48 -23 -248 0 -239 7 -266 77 -312 53 -36 49 -47 -14 -39 -108
15 -198 76 -233 159 -21 51 -30 215 -17 301 15 92 52 152 121 193 51 30 55 31
82 17 16 -8 29 -19 29 -24z m624 1 c3 -5 -1 -14 -9 -21 -35 -29 -47 -113 -43
-303 4 -205 8 -220 78 -279 22 -19 40 -38 40 -43 0 -12 -101 4 -145 24 -61 27
-105 70 -131 126 -21 45 -24 64 -24 191 0 101 4 153 16 186 18 53 68 109 122
137 33 17 40 17 64 5 15 -8 29 -18 32 -23z"/>
<path d="M1135 2643 c-38 -20 -38 -20 -31 -32 7 -11 76 16 76 30 0 16 -16 17
-45 2z"/>
<path d="M2164 2619 c-3 -6 -4 -12 -3 -13 45 -34 79 -46 79 -27 0 15 -69 51
-76 40z"/>
<path d="M1025 2576 c-16 -13 -27 -27 -23 -31 10 -10 79 35 72 46 -8 14 -16
11 -49 -15z"/>
<path d="M2260 2552 c0 -5 14 -18 30 -31 40 -29 62 -16 24 15 -29 23 -54 31
-54 16z"/>
<path d="M930 2505 c-13 -14 -20 -28 -17 -32 8 -8 59 27 65 45 7 21 -24 13
-48 -13z"/>
<path d="M2356 2482 c-8 -13 51 -65 64 -57 8 5 6 13 -7 27 -24 26 -50 40 -57
30z"/>
<path d="M845 2430 c-19 -20 -26 -33 -19 -40 7 -7 20 0 39 20 19 20 26 33 19
40 -7 7 -20 0 -39 -20z"/>
<path d="M2446 2402 c-7 -12 31 -72 45 -72 19 0 15 18 -10 49 -18 22 -30 30
-35 23z"/>
<path d="M766 2338 c-14 -18 -21 -35 -15 -36 21 -8 68 51 50 62 -5 4 -21 -8
-35 -26z"/>
<path d="M2510 2303 c1 -16 49 -67 57 -60 10 11 -22 61 -41 65 -9 2 -16 0 -16
-5z"/>
<path d="M697 2241 c-21 -35 -21 -41 -4 -41 12 0 21 12 45 63 2 4 -2 7 -10 7
-8 0 -21 -13 -31 -29z"/>
<path d="M2586 2211 c-4 -6 2 -27 13 -48 16 -31 21 -35 26 -21 8 21 -29 86
-39 69z"/>
<path d="M642 2145 c-14 -30 -15 -55 -4 -55 7 0 42 63 42 75 0 16 -29 1 -38
-20z"/>
<path d="M2636 2102 c-7 -11 21 -72 34 -72 14 0 13 16 -5 50 -16 31 -21 35
-29 22z"/>
<path d="M596 2036 c-3 -13 -9 -31 -12 -40 -4 -10 -1 -16 9 -16 8 0 18 11 21
24 3 13 9 31 12 40 4 10 1 16 -9 16 -8 0 -18 -11 -21 -24z"/>
<path d="M2677 1993 c-2 -5 1 -25 7 -45 8 -25 15 -35 23 -30 10 6 10 16 1 45
-11 35 -22 46 -31 30z"/>
<path d="M566 1938 c-15 -47 -16 -68 -2 -68 11 0 26 40 26 71 0 14 -20 11 -24
-3z"/>
<path d="M2708 1845 c4 -33 17 -53 28 -42 3 3 2 21 -1 41 -9 48 -32 48 -27 1z"/>
<path d="M540 1811 c0 -16 -3 -36 -6 -45 -4 -11 -1 -16 10 -16 10 0 16 9 16
24 0 13 3 31 6 39 3 8 -2 17 -10 20 -12 5 -16 0 -16 -22z"/>
<path d="M2720 1756 c0 -29 13 -76 21 -76 5 0 9 20 9 45 0 33 -4 45 -15 45 -8
0 -15 -6 -15 -14z"/>
<path d="M530 1675 c0 -25 5 -45 10 -45 6 0 10 20 10 45 0 25 -4 45 -10 45 -5
0 -10 -20 -10 -45z"/>
<path d="M2729 1620 c-1 -16 -2 -35 -3 -42 -1 -6 5 -13 12 -15 8 -3 12 9 12
41 0 50 -19 64 -21 16z"/>
<path d="M530 1571 c0 -37 10 -62 21 -55 10 6 12 45 3 68 -10 26 -24 18 -24
-13z"/>
<path d="M2715 1494 c-7 -39 -3 -50 14 -39 13 8 15 75 2 75 -5 0 -12 -16 -16
-36z"/>
<path d="M547 1448 c6 -34 19 -55 28 -47 10 10 -8 79 -21 79 -10 0 -12 -9 -7
-32z"/>
<path d="M2696 1393 c-2 -10 -7 -28 -11 -40 -4 -16 -2 -23 8 -23 12 0 27 39
27 71 0 16 -19 9 -24 -8z"/>
<path d="M576 1359 c-4 -9 -1 -32 7 -50 11 -26 16 -30 21 -18 4 9 1 32 -7 50
-11 26 -16 30 -21 18z"/>
<path d="M2655 1264 c-18 -44 -18 -44 -1 -44 12 0 36 47 36 71 0 22 -21 5 -35
-27z"/>
<path d="M613 1253 c-9 -3 -8 -14 5 -41 21 -48 21 -47 31 -36 12 12 -21 82
-36 77z"/>
<path d="M2607 1155 c-22 -45 -5 -54 22 -11 25 39 26 46 8 46 -7 0 -21 -16
-30 -35z"/>
<path d="M666 1141 c-8 -12 20 -71 34 -71 15 0 12 16 -9 51 -11 17 -22 26 -25
20z"/>
<path d="M2551 1057 c-23 -38 -26 -47 -12 -47 17 0 54 61 43 72 -6 6 -17 -2
-31 -25z"/>
<path d="M726 1041 c-8 -12 6 -42 28 -60 25 -21 26 5 2 38 -14 18 -27 28 -30
22z"/>
<path d="M2481 964 c-22 -28 -25 -37 -15 -47 7 -7 54 46 54 62 0 19 -18 12
-39 -15z"/>
<path d="M790 941 c0 -20 47 -64 59 -57 9 6 5 16 -15 37 -28 30 -44 37 -44 20z"/>
<path d="M2396 871 c-19 -20 -24 -31 -16 -36 13 -8 72 44 64 57 -9 14 -19 9
-48 -21z"/>
<path d="M874 859 c-4 -8 4 -21 22 -36 51 -40 62 -24 15 21 -21 20 -31 24 -37
15z"/>
<path d="M2309 796 c-39 -34 -21 -51 19 -20 18 14 30 30 27 35 -9 13 -17 11
-46 -15z"/>
<path d="M966 781 c-5 -8 5 -19 45 -49 13 -10 18 -10 22 1 5 15 -59 61 -67 48z"/>
<path d="M2212 728 c-22 -13 -30 -24 -24 -30 13 -13 72 20 72 39 0 17 -8 15
-48 -9z"/>
<path d="M1060 711 c0 -17 64 -51 72 -38 4 6 -5 18 -23 29 -32 20 -49 23 -49
9z"/>
<path d="M2113 673 c-35 -17 -43 -33 -18 -33 25 0 65 23 65 37 0 16 -7 16 -47
-4z"/>
<path d="M1164 659 c-8 -13 -7 -14 39 -33 35 -14 38 -14 35 0 -4 20 -65 47
-74 33z"/>
<path d="M2003 628 c-18 -6 -33 -17 -33 -26 0 -9 6 -12 16 -8 9 3 27 9 40 12
13 3 24 12 24 20 0 16 -3 16 -47 2z"/>
<path d="M1270 611 c0 -15 70 -35 82 -23 7 7 -2 14 -28 21 -48 13 -54 13 -54
2z"/>
<path d="M1883 593 c-13 -2 -23 -11 -23 -19 0 -10 7 -13 28 -8 45 10 52 13 52
24 0 10 -16 11 -57 3z"/>
<path d="M1390 576 c0 -9 8 -16 18 -16 9 0 27 -3 40 -6 16 -5 22 -2 22 10 0 9
-8 16 -17 16 -10 0 -28 3 -40 6 -17 5 -23 2 -23 -10z"/>
<path d="M1778 573 c-56 -6 -49 -29 6 -25 33 3 43 7 39 18 -3 8 -6 13 -7 12 0
-1 -18 -3 -38 -5z"/>
<path d="M1506 561 c-6 -10 26 -21 62 -21 13 0 22 6 22 15 0 11 -11 15 -39 15
-22 0 -42 -4 -45 -9z"/>
<path d="M1620 550 c0 -5 20 -10 45 -10 25 0 45 5 45 10 0 6 -20 10 -45 10
-25 0 -45 -4 -45 -10z"/>
</g>
</svg>
