<?xml version="1.0" standalone="no"?>
<!DOCTYPE svg PUBLIC "-//W3C//DTD SVG 20010904//EN"
 "http://www.w3.org/TR/2001/REC-SVG-20010904/DTD/svg10.dtd">
<svg version="1.0" xmlns="http://www.w3.org/2000/svg"
 width="328.000000pt" height="329.000000pt" viewBox="0 0 328.000000 329.000000"
 preserveAspectRatio="xMidYMid meet">

<g transform="translate(0.000000,329.000000) scale(0.100000,-0.100000)"
fill="#CC0000" stroke="none">
<path d="M1450 3280 c-713 -88 -1277 -596 -1430 -1288 -29 -128 -29 -576 0
-704 131 -594 574 -1065 1159 -1233 171 -48 264 -58 507 -52 227 5 284 14 461
72 417 137 771 445 963 840 223 459 223 991 0 1450 -229 471 -689 815 -1205
901 -112 18 -355 26 -455 14z m164 -105 c16 -12 21 -12 40 0 30 21 80 19 101
-5 38 -42 11 -123 -61 -190 -24 -22 -52 -40 -62 -40 -10 0 -38 21 -64 48 -77
79 -97 143 -58 182 23 23 76 26 104 5z m-505 -197 c24 -73 46 -138 48 -143 2
-6 -29 -26 -69 -45 -258 -124 -482 -348 -604 -604 -20 -42 -39 -76 -43 -76 -3
0 -68 21 -143 46 l-137 45 20 52 c100 254 326 527 578 698 56 37 286 159 301
159 3 0 25 -60 49 -132z m1195 83 c320 -155 577 -407 731 -716 30 -60 55 -119
57 -129 3 -16 -17 -26 -127 -62 -71 -24 -135 -44 -141 -44 -7 0 -28 34 -48 76
-121 256 -346 480 -602 603 l-71 33 46 144 c25 79 48 144 50 144 2 0 49 -22
105 -49z m-416 -263 c455 -99 808 -459 907 -924 23 -108 23 -360 0 -468 -99
-466 -447 -821 -909 -926 -76 -17 -127 -21 -256 -21 -129 0 -180 4 -256 21
-462 106 -809 459 -909 926 -24 109 -24 359 0 468 98 460 438 811 891 923 141
34 378 35 532 1z m-1618 -1038 c22 -22 27 -79 9 -97 -9 -9 -2 -9 26 -3 20 4
43 17 50 27 13 16 14 11 15 -46 l0 -64 -23 21 c-13 12 -32 22 -43 22 -17 0
-19 -6 -16 -39 5 -48 -23 -81 -69 -81 -31 0 -37 5 -122 98 l-38 42 57 65 c31
35 62 66 68 69 27 11 68 4 86 -14z m2828 4 c12 -8 22 -22 22 -30 0 -8 9 -14
22 -14 33 0 68 -38 68 -75 0 -34 -29 -68 -67 -80 -13 -3 -23 -11 -23 -17 0
-25 -34 -48 -71 -48 -43 0 -79 35 -79 77 0 16 -4 23 -12 20 -51 -21 -48 -23
-48 42 l0 61 26 -10 c34 -13 34 -13 34 14 0 13 9 35 21 50 24 30 72 35 107 10z
m-2614 -671 c119 -250 341 -473 597 -599 l76 -37 -46 -141 c-25 -78 -47 -143
-48 -145 -5 -8 -230 109 -303 158 -228 152 -439 395 -549 633 -62 132 -69 117
77 165 70 22 134 42 143 42 11 1 29 -24 53 -76z m2476 32 c111 -36 134 -47
132 -62 -2 -10 -27 -67 -57 -128 -122 -245 -316 -462 -550 -615 -76 -49 -283
-156 -289 -148 -5 6 -96 282 -93 284 1 1 36 18 77 39 257 127 477 349 596 598
20 42 39 77 43 77 3 0 67 -20 141 -45z m-1305 -781 c10 -20 36 -53 57 -75 21
-21 38 -43 38 -47 0 -5 -14 -21 -31 -38 -17 -16 -42 -48 -57 -71 -15 -24 -30
-43 -34 -43 -3 0 -17 19 -31 42 -14 24 -39 56 -56 72 -17 17 -31 34 -31 38 0
5 17 27 39 49 21 22 47 56 57 75 10 19 21 34 24 34 3 0 14 -16 25 -36z"/>
<path d="M1470 2743 c-45 -7 -54 -13 -42 -25 15 -15 82 -1 82 17 0 8 -3 14 -7
14 -5 -1 -19 -4 -33 -6z"/>
<path d="M1540 2735 c0 -17 15 -18 84 -9 67 10 56 24 -19 24 -51 0 -65 -3 -65
-15z"/>
<path d="M1700 2735 c0 -11 12 -15 45 -15 45 0 60 12 29 24 -31 12 -74 7 -74
-9z"/>
<path d="M1820 2725 c0 -7 18 -17 39 -23 32 -7 41 -7 45 4 3 8 2 14 -2 14 -4
0 -24 4 -44 9 -29 7 -38 6 -38 -4z"/>
<path d="M1348 2717 c-22 -5 -38 -15 -38 -23 0 -17 13 -17 57 -1 45 17 30 36
-19 24z"/>
<path d="M1935 2700 c-4 -6 -5 -13 -4 -14 12 -10 73 -25 80 -20 16 10 9 22
-15 28 -13 3 -31 8 -39 12 -8 3 -18 0 -22 -6z"/>
<path d="M1223 2678 c-26 -13 -32 -44 -7 -34 9 3 27 9 40 12 27 7 33 34 7 33
-10 0 -28 -5 -40 -11z"/>
<path d="M2045 2659 c-9 -13 -8 -14 37 -32 24 -10 40 -12 44 -6 7 12 7 12 -33
33 -38 19 -40 19 -48 5z"/>
<path d="M1475 2653 c-404 -64 -730 -360 -837 -761 -31 -117 -36 -328 -10
-452 63 -305 246 -550 523 -704 281 -155 677 -155 958 0 258 143 434 367 513
651 19 66 22 105 22 253 0 195 -13 260 -78 411 -103 240 -331 458 -570 546
-118 44 -182 55 -336 58 -85 2 -168 1 -185 -2z m-116 -469 c159 -36 227 -133
190 -269 -14 -48 -65 -100 -146 -145 -121 -69 -162 -101 -201 -160 -41 -61
-75 -167 -87 -272 l-6 -58 -111 0 -111 0 7 69 c16 174 77 280 237 411 128 106
161 150 167 223 7 84 -34 141 -131 182 -21 9 -35 20 -32 25 9 15 148 12 224
-6z m783 -5 c120 -39 200 -121 234 -237 12 -41 15 -93 12 -235 l-3 -183 -33
-66 c-35 -72 -87 -124 -158 -159 l-43 -20 -40 21 c-23 11 -41 24 -41 29 0 5 9
20 20 34 49 62 54 96 55 362 0 216 -2 257 -18 302 -19 55 -85 138 -117 148
-11 4 -20 11 -20 16 0 16 88 10 152 -12z m-202 -19 c22 -11 40 -25 40 -31 0
-6 -11 -25 -24 -42 -44 -58 -51 -105 -51 -357 0 -281 8 -322 80 -394 25 -24
54 -48 65 -51 11 -4 20 -11 20 -17 0 -7 -23 -9 -71 -5 -136 11 -254 90 -307
206 -24 52 -27 68 -30 226 -3 136 -1 184 12 235 28 108 82 176 181 228 49 26
39 26 85 2z m-861 -11 c17 -6 31 -14 32 -17 0 -4 2 -20 5 -37 18 -133 19 -122
-19 -160 -29 -29 -42 -35 -77 -35 -115 0 -155 124 -67 207 57 54 75 60 126 42z
m477 -673 c29 -29 34 -41 34 -80 0 -36 -6 -52 -29 -78 l-29 -33 -182 -3 -181
-3 3 32 c3 32 6 34 83 60 55 19 86 36 100 54 55 74 72 85 120 85 40 0 52 -5
81 -34z"/>
<path d="M1123 2633 c-31 -16 -45 -43 -23 -43 22 0 70 31 70 45 0 18 -6 18
-47 -2z"/>
<path d="M2156 2613 c-12 -12 -5 -21 28 -41 32 -19 46 -19 46 -1 0 10 -67 48
-74 42z"/>
<path d="M1018 2572 c-28 -17 -38 -42 -17 -42 18 0 70 41 64 51 -8 12 -16 11
-47 -9z"/>
<path d="M2256 2553 c-12 -12 -6 -22 25 -44 45 -32 60 -10 16 24 -19 14 -37
23 -41 20z"/>
<path d="M921 2500 c-30 -25 -32 -30 -17 -36 12 -5 26 2 44 19 39 39 16 53
-27 17z"/>
<path d="M2346 2472 c-8 -13 51 -65 64 -57 8 5 3 16 -16 36 -29 30 -39 35 -48
21z"/>
<path d="M835 2420 c-19 -20 -26 -33 -19 -40 7 -7 20 0 39 20 19 20 26 33 19
40 -7 7 -20 0 -39 -20z"/>
<path d="M2436 2392 c-8 -13 29 -72 44 -72 21 0 17 19 -9 50 -19 23 -30 30
-35 22z"/>
<path d="M755 2329 c-35 -43 -17 -64 19 -23 26 29 33 54 17 54 -5 0 -21 -14
-36 -31z"/>
<path d="M2505 2300 c-9 -15 39 -80 53 -71 8 5 4 17 -14 44 -27 40 -30 42 -39
27z"/>
<path d="M690 2235 c-15 -24 -19 -40 -13 -46 7 -7 18 2 33 26 15 24 19 40 13
46 -7 7 -18 -2 -33 -26z"/>
<path d="M2572 2203 c-9 -3 -7 -14 9 -43 13 -23 27 -36 35 -33 11 4 9 13 -6
44 -11 21 -21 39 -23 38 -1 0 -8 -3 -15 -6z"/>
<path d="M627 2125 c-11 -22 -13 -36 -6 -41 12 -7 12 -7 33 33 19 39 20 43 3
43 -7 0 -21 -16 -30 -35z"/>
<path d="M2620 2090 c0 -18 30 -70 40 -70 13 0 13 10 -1 49 -10 29 -39 44 -39
21z"/>
<path d="M581 2019 c-14 -41 -14 -49 2 -49 7 0 18 15 25 33 15 42 15 47 -2 47
-8 0 -19 -14 -25 -31z"/>
<path d="M2664 1973 c3 -10 8 -30 12 -45 6 -28 18 -36 28 -20 10 16 -15 82
-30 82 -10 0 -13 -6 -10 -17z"/>
<path d="M557 1933 c-3 -5 -8 -23 -12 -40 -5 -25 -3 -33 8 -33 12 0 27 39 27
71 0 11 -17 12 -23 2z"/>
<path d="M2704 1872 c-16 -10 -5 -82 12 -82 15 0 17 28 6 67 -4 13 -12 19 -18
15z"/>
<path d="M530 1816 c0 -7 -3 -28 -6 -45 -5 -24 -3 -31 8 -31 16 0 33 64 22 82
-8 13 -24 9 -24 -6z"/>
<path d="M2710 1715 c0 -33 4 -45 15 -45 11 0 15 12 15 45 0 33 -4 45 -15 45
-11 0 -15 -12 -15 -45z"/>
<path d="M520 1666 c0 -50 19 -64 22 -16 0 17 1 35 2 42 1 6 -5 13 -11 16 -9
2 -13 -10 -13 -42z"/>
<path d="M2716 1624 c-12 -31 -7 -74 9 -74 11 0 15 12 15 45 0 45 -12 60 -24
29z"/>
<path d="M520 1545 c0 -33 4 -45 15 -45 11 0 15 12 15 45 0 33 -4 45 -15 45
-11 0 -15 -12 -15 -45z"/>
<path d="M2704 1484 c-7 -36 10 -73 20 -43 14 46 15 79 1 79 -8 0 -17 -15 -21
-36z"/>
<path d="M534 1448 c3 -13 6 -31 6 -40 0 -10 7 -18 16 -18 13 0 15 7 10 31 -3
17 -6 35 -6 40 0 5 -7 9 -16 9 -12 0 -15 -6 -10 -22z"/>
<path d="M2681 1371 c-14 -48 -14 -51 3 -51 19 0 38 77 21 84 -7 2 -17 -10
-24 -33z"/>
<path d="M564 1347 c-8 -21 8 -69 25 -75 11 -4 12 4 7 34 -9 46 -23 64 -32 41z"/>
<path d="M2645 1254 c-18 -44 -18 -44 -1 -44 12 0 36 47 36 71 0 22 -21 5 -35
-27z"/>
<path d="M604 1242 c-9 -5 -8 -17 3 -44 15 -37 27 -46 37 -30 8 14 -28 82 -40
74z"/>
<path d="M2597 1149 c-16 -29 -15 -49 2 -49 6 0 41 63 41 75 0 17 -28 0 -43
-26z"/>
<path d="M646 1132 c-2 -4 6 -25 19 -46 28 -47 45 -30 19 20 -18 34 -29 41
-38 26z"/>
<path d="M2541 1052 c-22 -32 -27 -52 -12 -52 18 0 54 61 43 72 -6 6 -17 0
-31 -20z"/>
<path d="M707 1034 c-8 -9 36 -74 51 -74 18 0 15 17 -10 50 -22 30 -30 35 -41
24z"/>
<path d="M2470 956 c-14 -16 -20 -31 -16 -42 6 -15 11 -12 35 17 41 49 25 71
-19 25z"/>
<path d="M784 936 c-5 -12 2 -26 19 -44 39 -39 53 -16 17 27 -25 30 -30 32
-36 17z"/>
<path d="M2386 861 c-19 -20 -24 -31 -16 -36 13 -8 72 44 64 57 -9 14 -19 9
-48 -21z"/>
<path d="M865 849 c-8 -12 33 -59 52 -59 22 0 14 24 -17 48 -19 15 -31 19 -35
11z"/>
<path d="M2295 785 c-21 -18 -27 -27 -19 -35 8 -8 20 -4 43 15 17 15 31 31 31
36 0 16 -24 9 -55 -16z"/>
<path d="M950 769 c0 -12 20 -31 52 -49 11 -7 18 -6 21 5 4 9 -6 22 -27 34
-38 24 -46 26 -46 10z"/>
<path d="M2202 718 c-22 -14 -30 -24 -23 -31 12 -12 84 30 75 44 -8 13 -15 11
-52 -13z"/>
<path d="M1047 703 c-8 -8 65 -53 75 -47 14 9 8 20 -21 37 -31 18 -44 21 -54
10z"/>
<path d="M2105 663 c-38 -20 -38 -20 -31 -32 9 -14 76 18 76 36 0 17 -8 16
-45 -4z"/>
<path d="M1155 649 c-9 -13 -7 -15 37 -33 32 -14 37 -14 42 -1 3 8 4 15 2 15
-2 0 -20 7 -39 15 -25 10 -38 11 -42 4z"/>
<path d="M1988 617 c-27 -10 -39 -37 -18 -37 24 0 81 30 75 40 -7 12 -21 11
-57 -3z"/>
<path d="M1262 599 c6 -17 54 -33 75 -25 23 9 5 23 -41 32 -30 5 -38 4 -34 -7z"/>
<path d="M1888 587 c-49 -12 -54 -42 -5 -32 36 8 51 19 46 32 -3 5 -19 5 -41
0z"/>
<path d="M1375 571 c-7 -13 2 -18 48 -26 29 -6 37 -4 37 8 0 8 -13 17 -31 21
-41 8 -47 8 -54 -3z"/>
<path d="M1763 563 c-22 -3 -33 -10 -33 -20 0 -11 6 -14 23 -9 12 3 33 6 45 6
14 0 22 5 20 12 -5 14 -13 16 -55 11z"/>
<path d="M1492 548 c3 -7 23 -14 46 -16 33 -2 42 0 42 12 0 12 -11 16 -46 16
-32 0 -44 -4 -42 -12z"/>
<path d="M1648 553 c-53 -6 -47 -23 7 -23 33 0 45 4 45 15 0 8 -3 14 -7 13 -5
-1 -25 -3 -45 -5z"/>
</g>
</svg>
