<?xml version="1.0" standalone="no"?>
<!DOCTYPE svg PUBLIC "-//W3C//DTD SVG 20010904//EN"
 "http://www.w3.org/TR/2001/REC-SVG-20010904/DTD/svg10.dtd">
<svg version="1.0" xmlns="http://www.w3.org/2000/svg"
 width="330.000000pt" height="330.000000pt" viewBox="0 0 330.000000 330.000000"
 preserveAspectRatio="xMidYMid meet">

<g transform="translate(0.000000,330.000000) scale(0.100000,-0.100000)"
fill="#000000" stroke="none">
<path d="M1470 3289 c-626 -71 -1154 -483 -1370 -1070 -133 -361 -133 -777 -1
-1137 89 -241 230 -455 413 -627 255 -240 546 -381 898 -436 106 -17 369 -17
475 0 368 57 677 214 932 473 253 256 408 567 462 925 14 93 14 373 0 466 -54
361 -217 685 -471 935 -353 349 -856 526 -1338 471z m158 -105 c20 -14 24 -14
44 0 49 35 118 8 118 -45 0 -16 -6 -44 -14 -62 -14 -33 -107 -127 -126 -127
-6 0 -33 20 -60 46 -77 72 -101 143 -60 184 24 24 67 26 98 4z m-497 -213 l46
-139 -77 -37 c-200 -94 -390 -257 -508 -435 -34 -52 -113 -198 -123 -229 -4
-11 -35 -4 -147 33 -163 55 -155 40 -95 161 136 273 321 483 568 644 79 51
252 140 275 141 11 0 29 -40 61 -139z m1183 101 c284 -134 519 -348 683 -622
65 -109 119 -228 107 -239 -9 -8 -252 -91 -266 -91 -5 0 -27 39 -51 88 -126
257 -327 458 -585 584 -46 22 -81 45 -79 52 2 6 23 68 46 139 24 70 47 127 53
127 5 0 47 -17 92 -38z m-471 -253 c98 -13 249 -64 349 -117 301 -157 516
-427 605 -759 24 -90 27 -114 27 -293 0 -180 -2 -202 -26 -293 -118 -432 -441
-751 -875 -862 -148 -37 -412 -35 -565 4 -668 172 -1052 867 -839 1519 90 273
275 504 526 654 232 139 502 189 798 147z m-1559 -1048 c20 -22 24 -54 12 -88
-7 -21 -5 -21 24 -13 18 5 38 14 46 21 12 10 14 3 14 -41 0 -50 -1 -52 -17
-37 -10 8 -31 19 -47 23 -26 6 -28 5 -21 -12 15 -34 9 -77 -15 -96 -41 -34
-69 -24 -137 50 -35 37 -63 69 -63 72 0 3 28 35 63 73 69 74 106 86 141 48z
m2839 -11 c14 -16 32 -30 39 -30 25 0 56 -30 63 -60 9 -39 -15 -78 -56 -92
-16 -5 -29 -14 -29 -19 0 -21 -42 -49 -74 -49 -40 0 -76 37 -76 77 0 25 -5 25
-57 6 -10 -4 -13 11 -13 57 0 55 2 61 18 55 45 -19 52 -18 52 7 0 14 9 37 21
52 30 38 79 36 112 -4z m-2639 -622 c10 -24 38 -79 63 -123 122 -212 298 -379
522 -494 55 -28 101 -55 101 -59 0 -22 -87 -265 -96 -269 -6 -2 -54 16 -105
41 -270 128 -515 352 -671 611 -42 70 -118 224 -118 239 0 11 237 93 271 95
11 1 23 -14 33 -41z m2486 1 c69 -23 129 -45 134 -50 12 -10 -50 -148 -110
-248 -95 -155 -256 -337 -389 -438 -128 -97 -376 -227 -394 -207 -8 8 -91 251
-91 266 0 3 37 24 83 47 259 126 458 325 584 584 24 48 46 87 51 87 4 0 63
-19 132 -41z m-1295 -789 c14 -23 42 -58 61 -80 l36 -39 -36 -36 c-20 -20 -48
-54 -61 -76 -14 -21 -27 -39 -30 -39 -2 0 -12 14 -21 32 -9 17 -36 52 -60 78
l-44 47 36 34 c20 19 47 53 61 77 14 23 27 42 29 42 2 0 15 -18 29 -40z"/>
<path d="M1478 2753 c-47 -5 -54 -33 -9 -33 39 0 61 9 61 26 0 8 -3 13 -7 12
-5 -1 -25 -3 -45 -5z"/>
<path d="M1560 2745 c0 -12 13 -15 60 -15 47 0 60 3 60 15 0 12 -13 15 -60 15
-47 0 -60 -3 -60 -15z"/>
<path d="M1710 2746 c0 -12 11 -16 46 -16 59 0 55 24 -4 28 -33 2 -42 0 -42
-12z"/>
<path d="M1830 2737 c0 -15 74 -40 85 -29 11 11 4 20 -22 26 -16 4 -36 9 -45
12 -11 3 -18 0 -18 -9z"/>
<path d="M1385 2733 c-50 -13 -68 -24 -58 -34 15 -15 83 8 83 27 0 8 -1 13 -2
13 -2 -1 -12 -4 -23 -6z"/>
<path d="M1947 2714 c-14 -14 -7 -21 32 -32 49 -15 51 -15 51 2 0 8 -11 17
-24 20 -13 3 -30 8 -38 11 -8 3 -17 2 -21 -1z"/>
<path d="M1243 2688 c-33 -11 -41 -22 -25 -32 15 -9 82 17 82 31 0 15 -12 15
-57 1z"/>
<path d="M2057 2666 c-6 -14 66 -50 77 -38 13 12 4 22 -30 37 -44 18 -41 18
-47 1z"/>
<path d="M1495 2664 c-11 -3 -51 -12 -90 -20 -169 -38 -349 -140 -479 -270
-218 -218 -321 -505 -295 -820 31 -362 253 -676 591 -834 151 -70 227 -85 433
-84 166 0 187 3 268 27 178 55 316 136 443 262 556 551 315 1487 -441 1711
-78 23 -112 27 -250 30 -88 1 -169 1 -180 -2z m2 -601 c10 -63 7 -192 -6 -239
-6 -21 -9 -39 -8 -40 1 -1 29 7 62 18 109 37 250 13 332 -56 107 -90 96 -293
-21 -378 -72 -53 -123 -70 -228 -76 -54 -2 -98 -2 -98 1 0 3 21 15 47 27 112
49 154 109 161 230 3 65 0 81 -20 119 -47 88 -147 107 -238 46 -65 -43 -93
-41 -82 8 4 18 7 79 7 137 0 90 -3 111 -22 148 -23 42 -29 82 -16 95 3 4 32 7
64 7 l58 0 8 -47z m383 32 c93 -48 66 -178 -39 -192 -37 -5 -43 -2 -73 30 -18
19 -42 48 -54 63 -19 25 -28 28 -100 33 l-79 6 -3 38 -3 37 161 0 c124 0 168
-3 190 -15z m-381 -550 c37 -19 56 -65 46 -113 -4 -20 -9 -48 -10 -62 -2 -14
-4 -28 -4 -31 -1 -3 -16 -10 -35 -16 -42 -13 -83 4 -126 54 -83 94 17 226 129
168z"/>
<path d="M1143 2644 c-35 -15 -48 -30 -34 -38 11 -7 81 24 81 35 0 15 -15 16
-47 3z"/>
<path d="M2167 2623 c-12 -12 -7 -18 28 -37 51 -28 69 -6 20 23 -41 24 -39 23
-48 14z"/>
<path d="M1032 2580 c-30 -19 -36 -40 -10 -40 18 0 68 41 63 51 -9 13 -16 11
-53 -11z"/>
<path d="M2264 2559 c-7 -12 43 -58 64 -59 18 0 15 21 -5 37 -36 27 -52 33
-59 22z"/>
<path d="M940 2511 c-25 -21 -32 -33 -25 -40 8 -8 21 -2 45 18 25 21 32 33 25
40 -8 8 -21 2 -45 -18z"/>
<path d="M2356 2482 c-3 -5 8 -22 24 -37 24 -23 33 -26 43 -16 10 10 6 17 -18
37 -32 26 -41 29 -49 16z"/>
<path d="M851 2426 c-23 -23 -29 -36 -21 -41 17 -10 78 51 64 65 -7 7 -21 -1
-43 -24z"/>
<path d="M2445 2400 c-10 -16 46 -73 59 -60 7 7 0 20 -21 41 -21 22 -33 27
-38 19z"/>
<path d="M771 2339 c-32 -44 -12 -60 23 -19 24 29 27 50 7 50 -4 0 -18 -14
-30 -31z"/>
<path d="M2517 2314 c-8 -9 36 -74 51 -74 18 0 15 17 -10 50 -22 30 -30 35
-41 24z"/>
<path d="M702 2241 c-20 -35 -20 -51 -1 -51 6 0 49 65 49 75 0 1 -6 5 -14 8
-8 3 -21 -9 -34 -32z"/>
<path d="M2580 2211 c0 -18 35 -71 48 -71 16 0 15 2 -5 45 -15 32 -43 49 -43
26z"/>
<path d="M645 2140 c-18 -36 -19 -50 -2 -50 7 0 21 16 30 35 21 43 21 45 2 45
-8 0 -21 -13 -30 -30z"/>
<path d="M2644 2112 c-16 -10 13 -82 33 -82 10 0 12 6 7 23 -13 43 -29 66 -40
59z"/>
<path d="M602 2036 c-16 -42 -15 -56 2 -56 8 0 17 11 20 24 3 13 8 31 12 39 3
8 -1 17 -9 20 -9 3 -18 -6 -25 -27z"/>
<path d="M2680 1986 c0 -30 22 -75 35 -70 17 7 -2 84 -21 84 -8 0 -14 -6 -14
-14z"/>
<path d="M564 1916 c-6 -36 3 -64 16 -49 5 4 12 25 15 46 6 30 4 37 -8 37 -10
0 -18 -13 -23 -34z"/>
<path d="M2710 1876 c0 -37 14 -76 27 -76 11 0 14 7 9 23 -3 12 -6 32 -6 45 0
13 -6 22 -15 22 -8 0 -15 -6 -15 -14z"/>
<path d="M546 1817 c-10 -39 -7 -67 9 -67 9 0 15 9 15 24 0 13 3 31 6 39 3 8
-1 17 -9 20 -10 4 -17 -2 -21 -16z"/>
<path d="M2730 1725 c0 -33 4 -45 15 -45 11 0 15 12 15 45 0 33 -4 45 -15 45
-11 0 -15 -12 -15 -45z"/>
<path d="M536 1689 c-9 -47 -7 -59 9 -59 11 0 15 12 15 45 0 52 -14 60 -24 14z"/>
<path d="M2730 1610 c0 -29 4 -40 15 -40 11 0 15 11 15 40 0 29 -4 40 -15 40
-11 0 -15 -11 -15 -40z"/>
<path d="M540 1555 c0 -33 4 -45 15 -45 16 0 21 43 9 74 -12 31 -24 16 -24
-29z"/>
<path d="M2725 1528 c-11 -36 -11 -78 1 -78 15 0 24 23 24 61 0 29 -17 40 -25
17z"/>
<path d="M554 1438 c8 -48 12 -56 26 -42 15 15 0 84 -18 84 -12 0 -13 -8 -8
-42z"/>
<path d="M2706 1412 c-2 -4 -7 -24 -11 -45 -6 -29 -4 -37 8 -37 13 0 27 39 27
76 0 15 -16 19 -24 6z"/>
<path d="M578 1365 c-11 -11 14 -85 28 -85 17 0 18 17 3 59 -11 30 -19 37 -31
26z"/>
<path d="M2661 1269 c-14 -41 -14 -49 2 -49 7 0 18 15 25 33 15 42 15 47 -2
47 -8 0 -19 -14 -25 -31z"/>
<path d="M616 1251 c-7 -11 21 -81 32 -81 18 0 19 13 4 51 -15 39 -26 47 -36
30z"/>
<path d="M2616 1163 c-15 -33 -14 -53 3 -53 4 0 15 18 23 39 21 53 -2 65 -26
14z"/>
<path d="M665 1140 c-4 -6 3 -26 16 -46 28 -46 47 -31 23 20 -18 37 -28 44
-39 26z"/>
<path d="M2553 1056 c-20 -32 -21 -46 -1 -46 9 0 48 59 48 73 0 19 -27 3 -47
-27z"/>
<path d="M725 1040 c-8 -12 35 -70 52 -70 18 0 16 9 -9 47 -24 35 -33 39 -43
23z"/>
<path d="M2486 966 c-17 -23 -22 -37 -15 -41 12 -8 59 32 59 51 0 27 -19 22
-44 -10z"/>
<path d="M796 942 c-8 -13 51 -65 64 -57 8 5 3 16 -16 36 -29 30 -39 35 -48
21z"/>
<path d="M2405 880 c-21 -22 -26 -33 -18 -41 8 -8 20 -3 43 18 27 24 30 31 18
41 -12 9 -20 6 -43 -18z"/>
<path d="M880 857 c0 -7 13 -26 29 -41 39 -37 53 -15 15 25 -30 31 -44 36 -44
16z"/>
<path d="M2320 800 c-24 -20 -32 -32 -25 -39 8 -8 21 -2 45 18 24 20 32 33 25
40 -7 6 -21 0 -45 -19z"/>
<path d="M966 781 c-5 -7 54 -61 67 -61 3 0 7 7 10 14 4 10 -6 23 -27 35 -37
24 -43 25 -50 12z"/>
<path d="M2216 727 c-20 -16 -26 -26 -17 -31 14 -9 83 32 75 45 -9 15 -27 10
-58 -14z"/>
<path d="M1065 710 c-3 -5 12 -18 34 -30 26 -13 42 -16 46 -9 4 6 5 11 4 13
-55 37 -74 43 -84 26z"/>
<path d="M2118 674 c-16 -8 -28 -21 -28 -29 0 -13 4 -13 36 0 20 8 38 15 40
15 2 0 4 7 4 15 0 19 -17 19 -52 -1z"/>
<path d="M1170 657 c0 -7 16 -21 37 -31 29 -14 38 -15 44 -4 6 9 -2 18 -24 30
-39 21 -57 22 -57 5z"/>
<path d="M2008 628 c-35 -12 -39 -43 -5 -32 53 16 68 25 62 34 -7 12 -21 12
-57 -2z"/>
<path d="M1282 610 c6 -18 76 -42 84 -29 10 16 -9 29 -51 36 -29 5 -37 3 -33
-7z"/>
<path d="M1902 596 c-24 -5 -41 -14 -39 -20 5 -13 67 -10 80 3 19 19 1 26 -41
17z"/>
<path d="M1395 581 c-7 -12 2 -17 48 -25 28 -5 37 -4 37 7 0 8 -14 17 -31 21
-41 8 -47 8 -54 -3z"/>
<path d="M1768 571 c-17 -4 -25 -10 -20 -17 8 -14 84 -4 86 11 1 12 -30 15
-66 6z"/>
<path d="M1512 558 c3 -7 23 -14 46 -16 33 -2 42 0 42 12 0 12 -11 16 -46 16
-32 0 -44 -4 -42 -12z"/>
<path d="M1630 556 c0 -12 11 -16 46 -16 59 0 55 24 -4 28 -33 2 -42 0 -42
-12z"/>
</g>
</svg>
