<?xml version="1.0" standalone="no"?>
<!DOCTYPE svg PUBLIC "-//W3C//DTD SVG 20010904//EN"
 "http://www.w3.org/TR/2001/REC-SVG-20010904/DTD/svg10.dtd">
<svg version="1.0" xmlns="http://www.w3.org/2000/svg"
 width="329.000000pt" height="330.000000pt" viewBox="0 0 329.000000 330.000000"
 preserveAspectRatio="xMidYMid meet">

<g transform="translate(0.000000,330.000000) scale(0.100000,-0.100000)"
fill="#1800AD" stroke="none">
<path d="M1500 3294 c-14 -2 -63 -9 -110 -15 -47 -6 -125 -22 -175 -36 -606
-167 -1051 -636 -1191 -1253 -22 -98 -31 -481 -14 -590 97 -629 550 -1148
1160 -1330 174 -51 266 -64 470 -64 204 0 296 13 470 64 537 160 958 584 1114
1123 47 162 60 258 60 457 0 258 -33 421 -130 650 -213 506 -688 881 -1234
976 -83 14 -370 27 -420 18z m121 -110 c16 -15 20 -15 41 0 29 21 77 20 100
-1 24 -21 23 -74 -1 -122 -24 -45 -94 -111 -120 -111 -41 0 -141 134 -141 190
0 50 82 80 121 44z m-454 -350 c-1 -2 -32 -16 -67 -32 -240 -108 -480 -346
-600 -594 -22 -44 -42 -83 -44 -85 -3 -3 -68 16 -145 42 l-140 46 20 52 c132
336 462 672 809 824 l75 32 47 -141 c26 -78 47 -143 45 -144z m1229 195 c197
-109 396 -287 526 -469 64 -90 173 -293 180 -334 3 -16 -17 -26 -127 -62 -71
-24 -135 -44 -141 -44 -6 0 -30 38 -52 84 -62 129 -135 231 -246 342 -107 107
-252 211 -363 259 l-60 26 46 143 46 143 50 -19 c28 -11 91 -42 141 -69z
m-524 -214 c382 -80 709 -343 857 -692 79 -184 104 -351 89 -588 -28 -448
-361 -866 -808 -1013 -123 -41 -204 -52 -370 -52 -166 0 -248 11 -370 52 -448
148 -781 565 -808 1016 -15 234 11 402 89 585 147 346 470 609 849 691 92 20
377 20 472 1z m-1584 -1052 c15 -21 16 -75 1 -90 -16 -16 56 1 76 17 13 11 15
4 15 -46 0 -49 -2 -55 -13 -40 -7 9 -29 21 -48 25 -36 8 -36 8 -26 -19 22 -59
-20 -110 -78 -96 -27 7 -42 20 -107 95 -36 42 -36 44 -19 60 10 9 33 36 51 59
18 24 43 48 54 53 29 12 78 2 94 -18z m2820 11 c12 -8 22 -22 22 -30 0 -8 9
-14 20 -14 30 0 70 -44 70 -76 0 -32 -35 -74 -62 -74 -10 0 -21 -8 -25 -17
-12 -36 -36 -53 -73 -53 -43 0 -67 21 -76 69 -4 18 -12 30 -18 28 -48 -20 -46
-23 -46 42 l0 61 26 -10 c14 -6 27 -10 28 -10 2 0 6 14 10 32 3 17 14 40 23
50 20 22 71 23 101 2z m-2601 -697 c124 -242 315 -433 563 -562 l97 -50 -47
-142 -47 -142 -74 33 c-318 139 -605 414 -763 731 -30 61 -57 119 -60 130 -5
18 9 25 122 62 70 22 134 41 142 42 9 1 35 -38 67 -102z m2463 58 c112 -36
134 -47 132 -62 -7 -41 -117 -244 -176 -327 -168 -234 -401 -426 -646 -533
l-75 -32 -47 141 c-26 78 -47 142 -45 143 1 1 47 25 102 53 246 126 454 340
571 585 20 42 39 77 43 77 3 0 67 -20 141 -45z m-1305 -781 c10 -20 36 -53 57
-75 21 -21 38 -42 38 -45 0 -3 -21 -29 -46 -58 -26 -28 -51 -61 -57 -73 -6
-13 -13 -23 -16 -23 -3 0 -18 19 -33 43 -15 23 -40 55 -57 71 -17 17 -31 33
-31 38 0 4 17 26 38 47 21 22 47 55 57 75 11 20 22 36 25 36 3 0 14 -16 25
-36z"/>
<path d="M1463 2753 c-42 -5 -45 -33 -4 -33 16 0 36 3 45 6 19 7 22 35 4 32
-7 0 -28 -3 -45 -5z"/>
<path d="M1550 2745 c0 -16 29 -19 93 -9 59 10 43 24 -28 24 -51 0 -65 -3 -65
-15z"/>
<path d="M1710 2746 c0 -15 78 -28 86 -14 11 17 -9 28 -47 28 -27 0 -39 -4
-39 -14z"/>
<path d="M1830 2736 c0 -18 72 -39 82 -23 8 14 -5 22 -49 30 -24 5 -33 3 -33
-7z"/>
<path d="M1353 2729 c-18 -5 -33 -16 -33 -24 0 -18 4 -18 52 -5 26 8 35 15 31
25 -6 17 -6 17 -50 4z"/>
<path d="M1947 2714 c-4 -4 -7 -11 -7 -15 0 -11 68 -32 80 -24 17 10 11 23
-14 29 -13 3 -30 8 -38 11 -8 3 -17 2 -21 -1z"/>
<path d="M1228 2686 c-17 -7 -24 -16 -20 -23 10 -16 82 5 82 24 0 16 -25 16
-62 -1z"/>
<path d="M2055 2669 c-8 -12 -9 -12 33 -33 31 -16 52 -15 52 3 0 6 -63 41 -75
41 -2 0 -7 -5 -10 -11z"/>
<path d="M1440 2655 c-383 -82 -670 -349 -787 -730 -25 -84 -27 -101 -27 -275
0 -172 2 -191 27 -273 112 -365 370 -618 735 -719 65 -19 103 -22 252 -22 149
0 187 3 252 22 181 50 316 125 449 250 138 130 226 275 286 469 25 82 27 100
27 273 0 173 -2 191 -27 275 -116 382 -406 650 -789 729 -95 20 -307 20 -398
1z m785 -452 c151 -47 245 -158 265 -315 12 -91 12 -252 1 -340 -17 -130 -95
-243 -203 -293 l-51 -24 -38 19 c-51 27 -54 35 -26 72 42 56 57 129 64 308 6
193 -8 372 -35 433 -24 53 -75 113 -115 134 -68 35 30 39 138 6z m-1194 -30
c18 -48 22 -202 6 -288 -8 -44 -13 -82 -11 -84 2 -3 20 3 39 12 97 46 257 42
362 -9 227 -110 210 -437 -29 -552 -71 -35 -188 -55 -266 -47 l-66 7 57 23
c82 34 141 80 171 134 46 86 52 222 12 300 -20 37 -70 79 -104 87 -15 3 -33 7
-40 10 -31 9 -116 -19 -152 -52 -37 -33 -63 -41 -87 -26 -8 5 -9 22 -1 62 5
30 8 107 6 170 -2 97 -6 121 -25 153 -22 36 -31 106 -16 120 3 4 35 7 70 7 60
0 64 -1 74 -27z m459 14 c89 -31 107 -168 28 -219 -42 -27 -76 -30 -123 -9
-35 15 -49 30 -69 69 -14 27 -33 53 -43 57 -10 5 -58 11 -108 14 l-89 6 -7 35
c-5 20 -3 40 3 47 14 17 358 17 408 0z m520 -7 c42 -21 50 -40 26 -59 -8 -6
-24 -35 -37 -64 -23 -49 -24 -65 -27 -302 -5 -331 10 -405 95 -474 21 -17 49
-40 63 -52 l25 -20 -75 4 c-172 11 -304 109 -352 259 -17 56 -19 86 -16 268 4
195 5 208 29 260 34 72 91 133 159 170 30 16 59 30 63 30 4 0 26 -9 47 -20z
m-971 -664 c57 -30 79 -93 56 -161 -9 -25 -15 -51 -14 -58 3 -28 -3 -36 -41
-51 -38 -15 -43 -15 -78 3 -21 11 -55 38 -75 60 -31 35 -37 48 -37 87 0 83 45
133 123 134 21 0 51 -7 66 -14z"/>
<path d="M1133 2643 c-31 -16 -45 -43 -23 -43 22 0 70 31 70 45 0 18 -6 18
-47 -2z"/>
<path d="M2166 2623 c-12 -12 -6 -21 29 -42 23 -13 37 -16 41 -9 10 16 -57 64
-70 51z"/>
<path d="M1028 2582 c-27 -16 -38 -42 -19 -42 18 0 71 35 68 44 -5 17 -21 16
-49 -2z"/>
<path d="M2266 2563 c-12 -12 -6 -22 25 -44 45 -32 60 -10 16 24 -19 14 -37
23 -41 20z"/>
<path d="M933 2511 c-21 -18 -29 -31 -24 -40 7 -10 16 -6 42 17 45 41 28 62
-18 23z"/>
<path d="M2356 2482 c-8 -13 51 -65 64 -57 8 5 3 16 -16 36 -29 30 -39 35 -48
21z"/>
<path d="M845 2430 c-19 -20 -26 -33 -19 -40 7 -7 20 0 39 20 19 20 26 33 19
40 -7 7 -20 0 -39 -20z"/>
<path d="M2436 2402 c-2 -4 9 -23 24 -42 21 -26 32 -32 40 -24 8 8 4 19 -15
43 -27 31 -40 38 -49 23z"/>
<path d="M763 2338 c-30 -43 -13 -60 21 -22 14 16 26 35 26 42 0 23 -25 12
-47 -20z"/>
<path d="M2515 2310 c-9 -15 39 -80 53 -71 8 5 4 17 -14 44 -27 40 -30 42 -39
27z"/>
<path d="M701 2249 c-23 -38 -25 -45 -12 -53 15 -10 56 63 43 76 -8 8 -17 1
-31 -23z"/>
<path d="M2582 2213 c-9 -3 -7 -14 9 -43 13 -23 27 -36 35 -33 11 4 9 13 -6
44 -11 21 -21 39 -23 38 -1 0 -8 -3 -15 -6z"/>
<path d="M637 2136 c-15 -32 -14 -46 5 -46 6 0 38 63 38 76 0 2 -6 4 -13 4 -7
0 -21 -15 -30 -34z"/>
<path d="M2630 2101 c0 -5 7 -25 15 -44 10 -24 20 -34 29 -31 12 4 11 11 -2
45 -13 34 -42 55 -42 30z"/>
<path d="M595 2037 c-18 -44 -19 -57 -2 -57 19 0 42 69 28 83 -7 7 -15 0 -26
-26z"/>
<path d="M2674 1983 c3 -10 8 -30 12 -45 6 -28 18 -36 28 -20 10 16 -15 82
-30 82 -10 0 -13 -6 -10 -17z"/>
<path d="M567 1943 c-3 -5 -8 -23 -12 -40 -5 -26 -3 -33 8 -33 14 0 27 28 27
63 0 17 -15 24 -23 10z"/>
<path d="M2707 1883 c-9 -17 6 -83 19 -83 15 0 17 12 8 59 -6 29 -18 40 -27
24z"/>
<path d="M540 1826 c0 -7 -3 -28 -6 -45 -5 -24 -3 -31 10 -31 9 0 16 6 16 14
0 7 3 28 6 45 5 24 3 31 -10 31 -9 0 -16 -6 -16 -14z"/>
<path d="M2720 1725 c0 -33 4 -45 15 -45 11 0 15 12 15 45 0 33 -4 45 -15 45
-11 0 -15 -12 -15 -45z"/>
<path d="M530 1675 c0 -33 4 -45 15 -45 11 0 15 12 15 45 0 33 -4 45 -15 45
-11 0 -15 -12 -15 -45z"/>
<path d="M2720 1605 c0 -33 4 -45 15 -45 11 0 15 12 15 45 0 33 -4 45 -15 45
-11 0 -15 -12 -15 -45z"/>
<path d="M530 1555 c0 -33 4 -45 15 -45 11 0 15 12 15 45 0 33 -4 45 -15 45
-11 0 -15 -12 -15 -45z"/>
<path d="M2716 1514 c-9 -24 -7 -62 4 -69 11 -7 15 3 24 53 4 23 2 32 -8 32
-8 0 -17 -7 -20 -16z"/>
<path d="M544 1458 c3 -13 6 -31 6 -40 0 -10 7 -18 16 -18 13 0 15 7 10 31 -3
17 -6 35 -6 40 0 5 -7 9 -16 9 -12 0 -15 -6 -10 -22z"/>
<path d="M2690 1382 c-13 -48 -13 -52 4 -52 20 0 38 77 20 84 -9 3 -17 -7 -24
-32z"/>
<path d="M573 1335 c6 -39 22 -64 33 -52 10 10 -10 80 -25 85 -11 4 -13 -4 -8
-33z"/>
<path d="M2654 1264 c-13 -30 -13 -38 -3 -45 13 -8 39 37 39 67 0 27 -21 14
-36 -22z"/>
<path d="M614 1252 c-9 -5 -8 -17 3 -44 15 -38 27 -46 38 -28 9 15 -28 80 -41
72z"/>
<path d="M2605 1160 c-18 -36 -19 -50 -2 -50 7 0 21 16 30 35 21 43 21 45 2
45 -8 0 -21 -13 -30 -30z"/>
<path d="M656 1142 c-3 -5 6 -26 19 -48 19 -31 25 -36 30 -22 4 9 -1 30 -11
47 -19 31 -29 38 -38 23z"/>
<path d="M2551 1062 c-22 -32 -27 -52 -12 -52 18 0 54 61 43 72 -6 6 -17 0
-31 -20z"/>
<path d="M717 1044 c-8 -9 36 -74 51 -74 18 0 15 17 -10 50 -22 30 -30 35 -41
24z"/>
<path d="M2476 962 c-22 -24 -25 -31 -13 -41 12 -9 20 -5 40 23 23 30 26 46 7
46 -3 0 -19 -13 -34 -28z"/>
<path d="M792 948 c-9 -12 -6 -20 18 -43 41 -39 58 -21 21 23 -23 28 -29 32
-39 20z"/>
<path d="M2396 871 c-19 -20 -24 -31 -16 -36 13 -8 72 44 64 57 -9 14 -19 9
-48 -21z"/>
<path d="M875 859 c-8 -12 33 -59 51 -59 26 0 22 17 -11 43 -22 17 -36 23 -40
16z"/>
<path d="M2305 795 c-21 -18 -27 -27 -19 -35 8 -8 20 -4 43 15 17 15 31 31 31
36 0 16 -24 9 -55 -16z"/>
<path d="M960 778 c0 -16 60 -59 72 -52 15 10 8 22 -26 43 -39 24 -46 26 -46
9z"/>
<path d="M2212 728 c-22 -14 -30 -24 -23 -31 11 -11 74 21 73 38 -1 17 -16 15
-50 -7z"/>
<path d="M1057 716 c-6 -14 65 -60 77 -49 13 13 5 23 -33 43 -31 15 -40 17
-44 6z"/>
<path d="M2108 673 c-28 -14 -34 -24 -22 -36 10 -9 74 25 74 40 0 16 -17 15
-52 -4z"/>
<path d="M1165 659 c-9 -13 -7 -15 37 -33 30 -13 37 -13 41 -2 3 8 -8 20 -29
30 -41 19 -41 19 -49 5z"/>
<path d="M1998 628 c-27 -9 -40 -38 -18 -38 24 0 81 30 75 40 -7 12 -21 12
-57 -2z"/>
<path d="M1272 610 c6 -18 76 -42 84 -29 9 16 -6 27 -50 35 -30 5 -38 4 -34
-6z"/>
<path d="M1893 596 c-32 -8 -40 -14 -34 -25 11 -17 70 -5 78 15 8 21 3 22 -44
10z"/>
<path d="M1385 581 c-7 -13 2 -18 48 -26 29 -6 37 -4 37 8 0 8 -13 17 -31 21
-41 8 -47 8 -54 -3z"/>
<path d="M1773 573 c-21 -3 -33 -10 -33 -20 0 -12 8 -13 43 -8 23 4 44 9 46
10 5 5 -9 25 -17 23 -4 0 -22 -3 -39 -5z"/>
<path d="M1500 555 c0 -11 12 -15 45 -15 33 0 45 4 45 15 0 11 -12 15 -45 15
-33 0 -45 -4 -45 -15z"/>
<path d="M1653 563 c-49 -6 -40 -23 12 -23 33 0 45 4 45 15 0 8 -6 14 -12 13
-7 0 -28 -3 -45 -5z"/>
</g>
</svg>
